# xmcd
#
# Track frame offsets:
#	225
#	4981
#	20511
#	39154
#	57360
#	73698
#	91904
#	105523
#	124741
#	139796
#	155402
#	170180
#	185191
#
# Disc length: 2816 seconds
#
# Revision: 1
# Processed by: cddbd v1.5.1PL0 Copyright (c) Steve Scherf et al.
# Submitted via: audiograbber 1.82.02
#
DISCID=b20afd0d
DTITLE=Magda Anio³ - Co TO Jest?
DYEAR=1999
DGENRE=PRO 101
TTITLE0=Intro
TTITLE1=Taka Ja
TTITLE2=Piosenka Letnia
TTITLE3=Kochaj
TTITLE4=Czemu Ona Nie
TTITLE5=Hej Matko
TTITLE6=Nie Zatrzymuj Siê
TTITLE7=Co To Jest?
TTITLE8=Wierz
TTITLE9=A Mo¿e To Wiatr
TTITLE10=Poza Uk³adem
TTITLE11=Constans
TTITLE12=Dekalog X/Coda
EXTD=
EXTT0=
EXTT1=
EXTT2=
EXTT3=
EXTT4=
EXTT5=
EXTT6=
EXTT7=
EXTT8=
EXTT9=
EXTT10=
EXTT11=
EXTT12=
PLAYORDER=
